# Made in Blockbench 3.2.2
mtllib body_base.mtl
o cube
v 2.0999999999999996 16.099999999999994 4.099999999999998
v 2.0999999999999996 16.099999999999994 -4.1000000000000005
v 2.0999999999999996 3.8999999999999986 4.099999999999998
v 2.0999999999999996 3.8999999999999986 -4.1000000000000005
v -2.0999999999999996 16.099999999999994 -4.1000000000000005
v -2.0999999999999996 16.099999999999994 4.099999999999998
v -2.0999999999999996 3.8999999999999986 -4.1000000000000005
v -2.0999999999999996 3.8999999999999986 4.099999999999998
vt 0 1
vt 0 0.8125
vt 0.125 1
vt 0 0.8125
vt 0.125 0.8125
vt 0.125 1
vt 0.125 0.875
vt 0.125 0.6875
vt 0.25 0.875
vt 0.125 0.6875
vt 0.25 0.6875
vt 0.25 0.875
vt 0.125 0.9375
vt 0.25 0.9375
vt 0.125 1
vt 0.25 0.9375
vt 0.25 1
vt 0.125 1
vt 0.25 0.9375
vt 0.125 0.9375
vt 0.25 0.875
vt 0.125 0.9375
vt 0.125 0.875
vt 0.25 0.875
vt 0 0.8125
vt 0 0.625
vt 0.0625 0.8125
vt 0 0.625
vt 0.0625 0.625
vt 0.0625 0.8125
vt 0.0625 0.8125
vt 0.0625 0.625
vt 0.125 0.8125
vt 0.0625 0.625
vt 0.125 0.625
vt 0.125 0.8125
vn 1 0 0
vn 1 0 0
vn 1 0 0
vn 1 0 0
vn 1 0 0
vn 1 0 0
vn -1 0 0
vn -1 0 0
vn -1 0 0
vn -1 0 0
vn -1 0 0
vn -1 0 0
vn 0 1 0
vn 0 1 0
vn 0 1 0
vn 0 1 0
vn 0 1 0
vn 0 1 0
vn 0 -1 0
vn 0 -1 0
vn 0 -1 0
vn 0 -1 0
vn 0 -1 0
vn 0 -1 0
vn 0 0 1
vn 0 0 1
vn 0 0 1
vn 0 0 1
vn 0 0 1
vn 0 0 1
vn 0 0 -1
vn 0 0 -1
vn 0 0 -1
vn 0 0 -1
vn 0 0 -1
vn 0 0 -1
usemtl 2
f 1/1/1 3/2/2 2/3/3
f 3/4/4 4/5/5 2/6/6
usemtl 2
f 5/7/7 7/8/8 6/9/9
f 7/10/10 8/11/11 6/12/12
usemtl 2
f 5/13/13 6/14/14 2/15/15
f 6/16/16 1/17/17 2/18/18
usemtl 2
f 8/19/19 7/20/20 3/21/21
f 7/22/22 4/23/23 3/24/24
usemtl 2
f 6/25/25 8/26/26 1/27/27
f 8/28/28 3/29/29 1/30/30
usemtl 2
f 2/31/31 4/32/32 5/33/33
f 4/34/34 7/35/35 5/36/36
