mtllib head_left_ear.mtl
o cube
v -0.4557428724371818 6.993034853553247 -3.558944753357679
v -0.3369605232094125 6.319386675886321 -5.438329994929494
v -0.12939105010411012 5.14220169675659 -2.8749044667063366
v -0.010608700876340804 4.46855351908966 -4.754289708278152
v -2.306576029233829 5.972090320552461 -5.438329994929494
v -2.425358378461598 6.645738498219387 -3.558944753357679
v -1.9802242069007572 4.121257163755796 -4.754289708278152
v -2.0990065561285265 4.7949053414227265 -2.8749044667063366
vt 0.421875 0.578125
vt 0.421875 0.546875
vt 0.453125 0.578125
vt 0.421875 0.546875
vt 0.453125 0.546875
vt 0.453125 0.578125
vt 0.421875 0.765625
vt 0.421875 0.734375
vt 0.453125 0.765625
vt 0.421875 0.734375
vt 0.453125 0.734375
vt 0.453125 0.765625
vt 0.421875 0.671875
vt 0.453125 0.671875
vt 0.421875 0.703125
vt 0.453125 0.671875
vt 0.453125 0.703125
vt 0.421875 0.703125
vt 0.453125 0.609375
vt 0.421875 0.609375
vt 0.453125 0.578125
vt 0.421875 0.609375
vt 0.421875 0.578125
vt 0.453125 0.578125
vt 0.421875 0.796875
vt 0.421875 0.765625
vt 0.453125 0.796875
vt 0.421875 0.765625
vt 0.453125 0.765625
vt 0.453125 0.796875
vt 0.421875 0.734375
vt 0.421875 0.703125
vt 0.453125 0.734375
vt 0.421875 0.703125
vt 0.453125 0.703125
vt 0.453125 0.734375
vn 0.9848077530122081 0.17364817766693033 -6.938893903907228e-18
vn 0.9848077530122081 0.17364817766693033 -6.938893903907228e-18
vn 0.9848077530122081 0.17364817766693033 -6.938893903907228e-18
vn 0.9848077530122081 0.17364817766693033 -6.938893903907228e-18
vn 0.9848077530122081 0.17364817766693033 -6.938893903907228e-18
vn 0.9848077530122081 0.17364817766693033 -6.938893903907228e-18
vn -0.9848077530122081 -0.17364817766693033 6.938893903907228e-18
vn -0.9848077530122081 -0.17364817766693033 6.938893903907228e-18
vn -0.9848077530122081 -0.17364817766693033 6.938893903907228e-18
vn -0.9848077530122081 -0.17364817766693033 6.938893903907228e-18
vn -0.9848077530122081 -0.17364817766693033 6.938893903907228e-18
vn -0.9848077530122081 -0.17364817766693033 6.938893903907228e-18
vn -0.16317591116653482 0.9254165783983234 -0.34202014332566866
vn -0.16317591116653482 0.9254165783983234 -0.34202014332566866
vn -0.16317591116653482 0.9254165783983234 -0.34202014332566866
vn -0.16317591116653482 0.9254165783983234 -0.34202014332566866
vn -0.16317591116653482 0.9254165783983234 -0.34202014332566866
vn -0.16317591116653482 0.9254165783983234 -0.34202014332566866
vn 0.16317591116653482 -0.9254165783983234 0.34202014332566866
vn 0.16317591116653482 -0.9254165783983234 0.34202014332566866
vn 0.16317591116653482 -0.9254165783983234 0.34202014332566866
vn 0.16317591116653482 -0.9254165783983234 0.34202014332566866
vn 0.16317591116653482 -0.9254165783983234 0.34202014332566866
vn 0.16317591116653482 -0.9254165783983234 0.34202014332566866
vn -0.059391174613884684 0.3368240888334651 0.9396926207859083
vn -0.059391174613884684 0.3368240888334651 0.9396926207859083
vn -0.059391174613884684 0.3368240888334651 0.9396926207859083
vn -0.059391174613884684 0.3368240888334651 0.9396926207859083
vn -0.059391174613884684 0.3368240888334651 0.9396926207859083
vn -0.059391174613884684 0.3368240888334651 0.9396926207859083
vn 0.059391174613884684 -0.3368240888334651 -0.9396926207859083
vn 0.059391174613884684 -0.3368240888334651 -0.9396926207859083
vn 0.059391174613884684 -0.3368240888334651 -0.9396926207859083
vn 0.059391174613884684 -0.3368240888334651 -0.9396926207859083
vn 0.059391174613884684 -0.3368240888334651 -0.9396926207859083
vn 0.059391174613884684 -0.3368240888334651 -0.9396926207859083
usemtl 1
f 1/1/1 3/2/2 2/3/3
f 3/4/4 4/5/5 2/6/6
usemtl 1
f 5/7/7 7/8/8 6/9/9
f 7/10/10 8/11/11 6/12/12
usemtl 1
f 5/13/13 6/14/14 2/15/15
f 6/16/16 1/17/17 2/18/18
usemtl 1
f 8/19/19 7/20/20 3/21/21
f 7/22/22 4/23/23 3/24/24
usemtl 1
f 6/25/25 8/26/26 1/27/27
f 8/28/28 3/29/29 1/30/30
usemtl 1
f 2/31/31 4/32/32 5/33/33
f 4/34/34 7/35/35 5/36/36
o cube
v -1.625723133138772 9.759881003249966 -3.437485590457362
v -1.447549609297118 8.749408736749569 -6.256563452815086
v -0.9730194884726318 6.0582146896566655 -2.0694050171546845
v -0.7948459646309778 5.047742423156269 -4.8884828795124085
v -2.4323573623093258 8.575760559082639 -6.256563452815086
v -2.61053088615098 9.586232825583032 -3.437485590457362
v -1.7796537176431855 4.874094245489339 -4.8884828795124085
v -1.9578272414848394 5.8845665119897355 -2.0694050171546845
vt 0.28125 0.609375
vt 0.28125 0.546875
vt 0.328125 0.609375
vt 0.28125 0.546875
vt 0.328125 0.546875
vt 0.328125 0.609375
vt 0.328125 0.609375
vt 0.328125 0.546875
vt 0.375 0.609375
vt 0.328125 0.546875
vt 0.375 0.546875
vt 0.375 0.609375
vt 0.4296875 0.796875
vt 0.4765625 0.796875
vt 0.4296875 0.8125
vt 0.4765625 0.796875
vt 0.4765625 0.8125
vt 0.4296875 0.8125
vt 0.359375 0.546875
vt 0.3125 0.546875
vt 0.359375 0.53125
vt 0.3125 0.546875
vt 0.3125 0.53125
vt 0.359375 0.53125
vt 0.234375 0.578125
vt 0.234375 0.515625
vt 0.25 0.578125
vt 0.234375 0.515625
vt 0.25 0.515625
vt 0.25 0.578125
vt 0.25 0.578125
vt 0.25 0.515625
vt 0.265625 0.578125
vt 0.25 0.515625
vt 0.265625 0.515625
vt 0.265625 0.578125
vn 0.9848077530122081 0.17364817766693033 -6.938893903907228e-18
vn 0.9848077530122081 0.17364817766693033 -6.938893903907228e-18
vn 0.9848077530122081 0.17364817766693033 -6.938893903907228e-18
vn 0.9848077530122081 0.17364817766693033 -6.938893903907228e-18
vn 0.9848077530122081 0.17364817766693033 -6.938893903907228e-18
vn 0.9848077530122081 0.17364817766693033 -6.938893903907228e-18
vn -0.9848077530122081 -0.17364817766693033 6.938893903907228e-18
vn -0.9848077530122081 -0.17364817766693033 6.938893903907228e-18
vn -0.9848077530122081 -0.17364817766693033 6.938893903907228e-18
vn -0.9848077530122081 -0.17364817766693033 6.938893903907228e-18
vn -0.9848077530122081 -0.17364817766693033 6.938893903907228e-18
vn -0.9848077530122081 -0.17364817766693033 6.938893903907228e-18
vn -0.16317591116653482 0.9254165783983234 -0.34202014332566866
vn -0.16317591116653482 0.9254165783983234 -0.34202014332566866
vn -0.16317591116653482 0.9254165783983234 -0.34202014332566866
vn -0.16317591116653482 0.9254165783983234 -0.34202014332566866
vn -0.16317591116653482 0.9254165783983234 -0.34202014332566866
vn -0.16317591116653482 0.9254165783983234 -0.34202014332566866
vn 0.16317591116653482 -0.9254165783983234 0.34202014332566866
vn 0.16317591116653482 -0.9254165783983234 0.34202014332566866
vn 0.16317591116653482 -0.9254165783983234 0.34202014332566866
vn 0.16317591116653482 -0.9254165783983234 0.34202014332566866
vn 0.16317591116653482 -0.9254165783983234 0.34202014332566866
vn 0.16317591116653482 -0.9254165783983234 0.34202014332566866
vn -0.059391174613884684 0.3368240888334651 0.9396926207859083
vn -0.059391174613884684 0.3368240888334651 0.9396926207859083
vn -0.059391174613884684 0.3368240888334651 0.9396926207859083
vn -0.059391174613884684 0.3368240888334651 0.9396926207859083
vn -0.059391174613884684 0.3368240888334651 0.9396926207859083
vn -0.059391174613884684 0.3368240888334651 0.9396926207859083
vn 0.059391174613884684 -0.3368240888334651 -0.9396926207859083
vn 0.059391174613884684 -0.3368240888334651 -0.9396926207859083
vn 0.059391174613884684 -0.3368240888334651 -0.9396926207859083
vn 0.059391174613884684 -0.3368240888334651 -0.9396926207859083
vn 0.059391174613884684 -0.3368240888334651 -0.9396926207859083
vn 0.059391174613884684 -0.3368240888334651 -0.9396926207859083
usemtl 1
f 9/37/37 11/38/38 10/39/39
f 11/40/40 12/41/41 10/42/42
usemtl 1
f 13/43/43 15/44/44 14/45/45
f 15/46/46 16/47/47 14/48/48
usemtl 1
f 13/49/49 14/50/50 10/51/51
f 14/52/52 9/53/53 10/54/54
usemtl 1
f 16/55/55 15/56/56 11/57/57
f 15/58/58 12/59/59 11/60/60
usemtl 1
f 14/61/61 16/62/62 9/63/63
f 16/64/64 11/65/65 9/66/66
usemtl 1
f 10/67/67 12/68/68 13/69/69
f 12/70/70 15/71/71 13/72/72
o cube
v -2.1377059410148664 11.2574266589065 -4.493893548466801
v -2.1377059410148664 10.573386372255161 -6.373278790038615
v -2.1377059410148664 9.378041417334689 -3.8098532618154657
v -2.1377059410148664 8.69400113068335 -5.68923850338728
v -3.1377059410148664 10.573386372255161 -6.373278790038615
v -3.1377059410148664 11.2574266589065 -4.493893548466801
v -3.1377059410148664 8.69400113068335 -5.68923850338728
v -3.1377059410148664 9.378041417334689 -3.8098532618154657
vt 0.4375 0.671875
vt 0.4375 0.640625
vt 0.46875 0.671875
vt 0.4375 0.640625
vt 0.46875 0.640625
vt 0.46875 0.671875
vt 0.4375 0.640625
vt 0.4375 0.609375
vt 0.46875 0.640625
vt 0.4375 0.609375
vt 0.46875 0.609375
vt 0.46875 0.640625
vt 0.3125 0.515625
vt 0.34375 0.515625
vt 0.3125 0.53125
vt 0.34375 0.515625
vt 0.34375 0.53125
vt 0.3125 0.53125
vt 0.375 0.53125
vt 0.34375 0.53125
vt 0.375 0.515625
vt 0.34375 0.53125
vt 0.34375 0.515625
vt 0.375 0.515625
vt 0.140625 0.53125
vt 0.140625 0.5
vt 0.15625 0.53125
vt 0.140625 0.5
vt 0.15625 0.5
vt 0.15625 0.53125
vt 0.15625 0.53125
vt 0.15625 0.5
vt 0.171875 0.53125
vt 0.15625 0.5
vt 0.171875 0.5
vt 0.171875 0.53125
vn 1 0 0
vn 1 0 0
vn 1 0 0
vn 1 0 0
vn 1 0 0
vn 1 0 0
vn -1 0 0
vn -1 0 0
vn -1 0 0
vn -1 0 0
vn -1 0 0
vn -1 0 0
vn 0 0.9396926207859084 -0.34202014332566866
vn 0 0.9396926207859084 -0.34202014332566866
vn 0 0.9396926207859084 -0.34202014332566866
vn 0 0.9396926207859084 -0.34202014332566866
vn 0 0.9396926207859084 -0.34202014332566866
vn 0 0.9396926207859084 -0.34202014332566866
vn 0 -0.9396926207859084 0.34202014332566866
vn 0 -0.9396926207859084 0.34202014332566866
vn 0 -0.9396926207859084 0.34202014332566866
vn 0 -0.9396926207859084 0.34202014332566866
vn 0 -0.9396926207859084 0.34202014332566866
vn 0 -0.9396926207859084 0.34202014332566866
vn 0 0.34202014332566866 0.9396926207859084
vn 0 0.34202014332566866 0.9396926207859084
vn 0 0.34202014332566866 0.9396926207859084
vn 0 0.34202014332566866 0.9396926207859084
vn 0 0.34202014332566866 0.9396926207859084
vn 0 0.34202014332566866 0.9396926207859084
vn 0 -0.34202014332566866 -0.9396926207859084
vn 0 -0.34202014332566866 -0.9396926207859084
vn 0 -0.34202014332566866 -0.9396926207859084
vn 0 -0.34202014332566866 -0.9396926207859084
vn 0 -0.34202014332566866 -0.9396926207859084
vn 0 -0.34202014332566866 -0.9396926207859084
usemtl 1
f 17/73/73 19/74/74 18/75/75
f 19/76/76 20/77/77 18/78/78
usemtl 1
f 21/79/79 23/80/80 22/81/81
f 23/82/82 24/83/83 22/84/84
usemtl 1
f 21/85/85 22/86/86 18/87/87
f 22/88/88 17/89/89 18/90/90
usemtl 1
f 24/91/91 23/92/92 19/93/93
f 23/94/94 20/95/95 19/96/96
usemtl 1
f 22/97/97 24/98/98 17/99/99
f 24/100/100 19/101/101 17/102/102
usemtl 1
f 18/103/103 20/104/104 21/105/105
f 20/106/106 23/107/107 21/108/108
