mtllib head_right_ear.mtl
o cube
v -1.523247186390722 9.023945507882495 5.87818646808725
v -1.658077552973365 9.78860651461503 2.980408989220056
v -0.8523221484046406 5.218940537625713 4.842910287677169
v -0.9871525149872835 5.983601544358244 1.9451328088099746
v -2.642885305985573 9.6149583369481 2.980408989220056
v -2.50805493940293 8.850297330215565 5.87818646808725
v -1.9719602679994916 5.809953366691314 1.9451328088099746
v -1.8371299014168487 5.045292359958783 4.842910287677169
vt 0.375 0.609375
vt 0.375 0.546875
vt 0.421875 0.609375
vt 0.375 0.546875
vt 0.421875 0.546875
vt 0.421875 0.609375
vt 0.390625 1
vt 0.390625 0.9375
vt 0.4375 1
vt 0.390625 0.9375
vt 0.4375 0.9375
vt 0.4375 1
vt 0.359375 0.53125
vt 0.40625 0.53125
vt 0.359375 0.546875
vt 0.40625 0.53125
vt 0.40625 0.546875
vt 0.359375 0.546875
vt 0.453125 0.546875
vt 0.40625 0.546875
vt 0.453125 0.53125
vt 0.40625 0.546875
vt 0.40625 0.53125
vt 0.453125 0.53125
vt 0.265625 0.578125
vt 0.265625 0.515625
vt 0.28125 0.578125
vt 0.265625 0.515625
vt 0.28125 0.515625
vt 0.28125 0.578125
vt 0.4296875 0.90625
vt 0.4296875 0.84375
vt 0.4453125 0.90625
vt 0.4296875 0.84375
vt 0.4453125 0.84375
vt 0.4453125 0.90625
vn 0.9848077530122081 0.17364817766693033 -6.938893903907228e-18
vn 0.9848077530122081 0.17364817766693033 -6.938893903907228e-18
vn 0.9848077530122081 0.17364817766693033 -6.938893903907228e-18
vn 0.9848077530122081 0.17364817766693033 -6.938893903907228e-18
vn 0.9848077530122081 0.17364817766693033 -6.938893903907228e-18
vn 0.9848077530122081 0.17364817766693033 -6.938893903907228e-18
vn -0.9848077530122081 -0.17364817766693033 6.938893903907228e-18
vn -0.9848077530122081 -0.17364817766693033 6.938893903907228e-18
vn -0.9848077530122081 -0.17364817766693033 6.938893903907228e-18
vn -0.9848077530122081 -0.17364817766693033 6.938893903907228e-18
vn -0.9848077530122081 -0.17364817766693033 6.938893903907228e-18
vn -0.9848077530122081 -0.17364817766693033 6.938893903907228e-18
vn -0.16773125949652062 0.9512512425641977 0.2588190451025207
vn -0.16773125949652062 0.9512512425641977 0.2588190451025207
vn -0.16773125949652062 0.9512512425641977 0.2588190451025207
vn -0.16773125949652062 0.9512512425641977 0.2588190451025207
vn -0.16773125949652062 0.9512512425641977 0.2588190451025207
vn -0.16773125949652062 0.9512512425641977 0.2588190451025207
vn 0.16773125949652062 -0.9512512425641977 -0.2588190451025207
vn 0.16773125949652062 -0.9512512425641977 -0.2588190451025207
vn 0.16773125949652062 -0.9512512425641977 -0.2588190451025207
vn 0.16773125949652062 -0.9512512425641977 -0.2588190451025207
vn 0.16773125949652062 -0.9512512425641977 -0.2588190451025207
vn 0.16773125949652062 -0.9512512425641977 -0.2588190451025207
vn 0.04494345552754777 -0.2548870022441787 0.9659258262890683
vn 0.04494345552754777 -0.2548870022441787 0.9659258262890683
vn 0.04494345552754777 -0.2548870022441787 0.9659258262890683
vn 0.04494345552754777 -0.2548870022441787 0.9659258262890683
vn 0.04494345552754777 -0.2548870022441787 0.9659258262890683
vn 0.04494345552754777 -0.2548870022441787 0.9659258262890683
vn -0.04494345552754777 0.2548870022441787 -0.9659258262890683
vn -0.04494345552754777 0.2548870022441787 -0.9659258262890683
vn -0.04494345552754777 0.2548870022441787 -0.9659258262890683
vn -0.04494345552754777 0.2548870022441787 -0.9659258262890683
vn -0.04494345552754777 0.2548870022441787 -0.9659258262890683
vn -0.04494345552754777 0.2548870022441787 -0.9659258262890683
usemtl 1
f 1/1/1 3/2/2 2/3/3
f 3/4/4 4/5/5 2/6/6
usemtl 1
f 5/7/7 7/8/8 6/9/9
f 7/10/10 8/11/11 6/12/12
usemtl 1
f 5/13/13 6/14/14 2/15/15
f 6/16/16 1/17/17 2/18/18
usemtl 1
f 8/19/19 7/20/20 3/21/21
f 7/22/22 4/23/23 3/24/24
usemtl 1
f 6/25/25 8/26/26 1/27/27
f 8/28/28 3/29/29 1/30/30
usemtl 1
f 2/31/31 4/32/32 5/33/33
f 4/34/34 7/35/35 5/36/36
o cube
v -0.3304453972764698 6.342498248639934 5.21511060068016
v -0.46527576385911285 7.107159255372469 2.317333121812962
v 0.005017121716567763 4.439995763511558 4.697472510475125
v -0.12981324486607526 5.2046567702440925 1.7996950316079268
v -2.4348912698835288 6.759862900038609 2.317333121812962
v -2.300060903300886 5.995201893306074 5.21511060068016
v -2.099428750890491 4.857360414910232 1.7996950316079268
v -1.964598384307848 4.0926994081776975 4.697472510475125
vt 0.390625 0.9375
vt 0.390625 0.90625
vt 0.4375 0.9375
vt 0.390625 0.90625
vt 0.4375 0.90625
vt 0.4375 0.9375
vt 0.390625 0.671875
vt 0.390625 0.640625
vt 0.4375 0.671875
vt 0.390625 0.640625
vt 0.4375 0.640625
vt 0.4375 0.671875
vt 0.390625 0.609375
vt 0.4375 0.609375
vt 0.390625 0.640625
vt 0.4375 0.609375
vt 0.4375 0.640625
vt 0.390625 0.640625
vt 0.109375 0.578125
vt 0.0625 0.578125
vt 0.109375 0.546875
vt 0.0625 0.578125
vt 0.0625 0.546875
vt 0.109375 0.546875
vt 0.4296875 0.84375
vt 0.4296875 0.8125
vt 0.4609375 0.84375
vt 0.4296875 0.8125
vt 0.4609375 0.8125
vt 0.4609375 0.84375
vt 0.4375 1
vt 0.4375 0.96875
vt 0.46875 1
vt 0.4375 0.96875
vt 0.46875 0.96875
vt 0.46875 1
vn 0.9848077530122081 0.17364817766693033 -6.938893903907228e-18
vn 0.9848077530122081 0.17364817766693033 -6.938893903907228e-18
vn 0.9848077530122081 0.17364817766693033 -6.938893903907228e-18
vn 0.9848077530122081 0.17364817766693033 -6.938893903907228e-18
vn 0.9848077530122081 0.17364817766693033 -6.938893903907228e-18
vn 0.9848077530122081 0.17364817766693033 -6.938893903907228e-18
vn -0.9848077530122081 -0.17364817766693033 6.938893903907228e-18
vn -0.9848077530122081 -0.17364817766693033 6.938893903907228e-18
vn -0.9848077530122081 -0.17364817766693033 6.938893903907228e-18
vn -0.9848077530122081 -0.17364817766693033 6.938893903907228e-18
vn -0.9848077530122081 -0.17364817766693033 6.938893903907228e-18
vn -0.9848077530122081 -0.17364817766693033 6.938893903907228e-18
vn -0.16773125949652062 0.9512512425641977 0.2588190451025207
vn -0.16773125949652062 0.9512512425641977 0.2588190451025207
vn -0.16773125949652062 0.9512512425641977 0.2588190451025207
vn -0.16773125949652062 0.9512512425641977 0.2588190451025207
vn -0.16773125949652062 0.9512512425641977 0.2588190451025207
vn -0.16773125949652062 0.9512512425641977 0.2588190451025207
vn 0.16773125949652062 -0.9512512425641977 -0.2588190451025207
vn 0.16773125949652062 -0.9512512425641977 -0.2588190451025207
vn 0.16773125949652062 -0.9512512425641977 -0.2588190451025207
vn 0.16773125949652062 -0.9512512425641977 -0.2588190451025207
vn 0.16773125949652062 -0.9512512425641977 -0.2588190451025207
vn 0.16773125949652062 -0.9512512425641977 -0.2588190451025207
vn 0.04494345552754777 -0.2548870022441787 0.9659258262890683
vn 0.04494345552754777 -0.2548870022441787 0.9659258262890683
vn 0.04494345552754777 -0.2548870022441787 0.9659258262890683
vn 0.04494345552754777 -0.2548870022441787 0.9659258262890683
vn 0.04494345552754777 -0.2548870022441787 0.9659258262890683
vn 0.04494345552754777 -0.2548870022441787 0.9659258262890683
vn -0.04494345552754777 0.2548870022441787 -0.9659258262890683
vn -0.04494345552754777 0.2548870022441787 -0.9659258262890683
vn -0.04494345552754777 0.2548870022441787 -0.9659258262890683
vn -0.04494345552754777 0.2548870022441787 -0.9659258262890683
vn -0.04494345552754777 0.2548870022441787 -0.9659258262890683
vn -0.04494345552754777 0.2548870022441787 -0.9659258262890683
usemtl 1
f 9/37/37 11/38/38 10/39/39
f 11/40/40 12/41/41 10/42/42
usemtl 1
f 13/43/43 15/44/44 14/45/45
f 15/46/46 16/47/47 14/48/48
usemtl 1
f 13/49/49 14/50/50 10/51/51
f 14/52/52 9/53/53 10/54/54
usemtl 1
f 16/55/55 15/56/56 11/57/57
f 15/58/58 12/59/59 11/60/60
usemtl 1
f 14/61/61 16/62/62 9/63/63
f 16/64/64 11/65/65 9/66/66
usemtl 1
f 10/67/67 12/68/68 13/69/69
f 12/70/70 15/71/71 13/72/72
o cube
v -2.1377059410148664 10.931811535691434 5.877176375350739
v -2.1377059410148664 11.449449625896474 3.9453247227726065
v -2.1377059410148664 8.999959883113302 5.3595382851457
v -2.1377059410148664 9.517597973318342 3.427686632567567
v -3.1377059410148664 11.449449625896474 3.9453247227726065
v -3.1377059410148664 10.931811535691434 5.877176375350739
v -3.1377059410148664 9.517597973318342 3.427686632567567
v -3.1377059410148664 8.999959883113302 5.3595382851457
vt 0.4375 0.96875
vt 0.4375 0.9375
vt 0.46875 0.96875
vt 0.4375 0.9375
vt 0.46875 0.9375
vt 0.46875 0.96875
vt 0.4375 0.9375
vt 0.4375 0.90625
vt 0.46875 0.9375
vt 0.4375 0.90625
vt 0.46875 0.90625
vt 0.46875 0.9375
vt 0.390625 0.890625
vt 0.421875 0.890625
vt 0.390625 0.90625
vt 0.421875 0.890625
vt 0.421875 0.90625
vt 0.390625 0.90625
vt 0.140625 0.53125
vt 0.109375 0.53125
vt 0.140625 0.515625
vt 0.109375 0.53125
vt 0.109375 0.515625
vt 0.140625 0.515625
vt 0.453125 0.5859375
vt 0.453125 0.5546875
vt 0.46875 0.5859375
vt 0.453125 0.5546875
vt 0.46875 0.5546875
vt 0.46875 0.5859375
vt 0.4609375 0.84375
vt 0.4609375 0.8125
vt 0.4765625 0.84375
vt 0.4609375 0.8125
vt 0.4765625 0.8125
vt 0.4765625 0.84375
vn 1 0 0
vn 1 0 0
vn 1 0 0
vn 1 0 0
vn 1 0 0
vn 1 0 0
vn -1 0 0
vn -1 0 0
vn -1 0 0
vn -1 0 0
vn -1 0 0
vn -1 0 0
vn 0 0.9659258262890683 0.25881904510252074
vn 0 0.9659258262890683 0.25881904510252074
vn 0 0.9659258262890683 0.25881904510252074
vn 0 0.9659258262890683 0.25881904510252074
vn 0 0.9659258262890683 0.25881904510252074
vn 0 0.9659258262890683 0.25881904510252074
vn 0 -0.9659258262890683 -0.25881904510252074
vn 0 -0.9659258262890683 -0.25881904510252074
vn 0 -0.9659258262890683 -0.25881904510252074
vn 0 -0.9659258262890683 -0.25881904510252074
vn 0 -0.9659258262890683 -0.25881904510252074
vn 0 -0.9659258262890683 -0.25881904510252074
vn 0 -0.25881904510252074 0.9659258262890683
vn 0 -0.25881904510252074 0.9659258262890683
vn 0 -0.25881904510252074 0.9659258262890683
vn 0 -0.25881904510252074 0.9659258262890683
vn 0 -0.25881904510252074 0.9659258262890683
vn 0 -0.25881904510252074 0.9659258262890683
vn 0 0.25881904510252074 -0.9659258262890683
vn 0 0.25881904510252074 -0.9659258262890683
vn 0 0.25881904510252074 -0.9659258262890683
vn 0 0.25881904510252074 -0.9659258262890683
vn 0 0.25881904510252074 -0.9659258262890683
vn 0 0.25881904510252074 -0.9659258262890683
usemtl 1
f 17/73/73 19/74/74 18/75/75
f 19/76/76 20/77/77 18/78/78
usemtl 1
f 21/79/79 23/80/80 22/81/81
f 23/82/82 24/83/83 22/84/84
usemtl 1
f 21/85/85 22/86/86 18/87/87
f 22/88/88 17/89/89 18/90/90
usemtl 1
f 24/91/91 23/92/92 19/93/93
f 23/94/94 20/95/95 19/96/96
usemtl 1
f 22/97/97 24/98/98 17/99/99
f 24/100/100 19/101/101 17/102/102
usemtl 1
f 18/103/103 20/104/104 21/105/105
f 20/106/106 23/107/107 21/108/108
